<?xml version="1.0" encoding="UTF-8"?>
<svg id="OBJECTS" xmlns="http://www.w3.org/2000/svg" version="1.1" xmlns:xlink="http://www.w3.org/1999/xlink" viewBox="0 0 8192 7993.6">
  <!-- Generator: Adobe Illustrator 29.1.0, SVG Export Plug-In . SVG Version: 2.1.0 Build 142)  -->
  <defs>
    <style>
      .st0 {
        fill: url(#linear-gradient2);
      }

      .st1, .st2 {
        fill: #fff;
      }

      .st3 {
        fill: url(#linear-gradient1);
      }

      .st4 {
        font-family: Outfit-Bold, Outfit;
        font-size: 319px;
        font-weight: 700;
      }

      .st5 {
        fill: #9899a0;
      }

      .st6 {
        fill: url(#linear-gradient7);
      }

      .st7 {
        fill: url(#linear-gradient4);
      }

      .st8 {
        fill: url(#linear-gradient5);
      }

      .st9 {
        fill: url(#linear-gradient3);
      }

      .st10 {
        fill: #21246b;
      }

      .st2 {
        stroke: #aeaeaf;
        stroke-miterlimit: 10;
        stroke-width: 5px;
      }

      .st11 {
        font-family: Outfit-Light, Outfit;
        font-size: 255.2px;
        font-weight: 300;
      }

      .st12 {
        fill: #c7c7c9;
      }

      .st13 {
        fill: url(#linear-gradient6);
      }

      .st14 {
        fill: url(#linear-gradient);
      }
    </style>
    <linearGradient id="linear-gradient" x1="2835.3" y1="5599.4" x2="2835.3" y2="5599.4" gradientTransform="translate(3810.5 -1756.2) rotate(44.3)" gradientUnits="userSpaceOnUse">
      <stop offset="0" stop-color="#00bbfa"/>
      <stop offset="0" stop-color="#009fde"/>
      <stop offset=".2" stop-color="#0076b5"/>
      <stop offset=".3" stop-color="#005391"/>
      <stop offset=".4" stop-color="#003674"/>
      <stop offset=".5" stop-color="#001f5e"/>
      <stop offset=".6" stop-color="#00104e"/>
      <stop offset=".8" stop-color="#000644"/>
      <stop offset="1" stop-color="#000442"/>
    </linearGradient>
    <linearGradient id="linear-gradient1" x1="2584.3" y1="4710.8" x2="3220.2" y2="5346.7" xlink:href="#linear-gradient"/>
    <linearGradient id="linear-gradient2" x1="2349.4" y1="5919" x2="2349.4" y2="5919" xlink:href="#linear-gradient"/>
    <linearGradient id="linear-gradient3" x1="2303.8" y1="5872.9" x2="2303.8" y2="5872.9" xlink:href="#linear-gradient"/>
    <linearGradient id="linear-gradient4" x1="2800.9" y1="4818.5" x2="2920" y2="4818.5" xlink:href="#linear-gradient"/>
    <linearGradient id="linear-gradient5" x1="2137.1" y1="4719.2" x2="2137.1" y2="4719.2" gradientTransform="matrix(1,0,0,1,0,0)" xlink:href="#linear-gradient"/>
    <linearGradient id="linear-gradient6" x1="2171" y1="4758.3" x2="2171" y2="4758.3" gradientTransform="matrix(1,0,0,1,0,0)" xlink:href="#linear-gradient"/>
    <linearGradient id="linear-gradient7" x1="2147.9" y1="4722.9" x2="2147.9" y2="4722.9" gradientTransform="matrix(1,0,0,1,0,0)" xlink:href="#linear-gradient"/>
  </defs>
  <rect class="st2" x="1348.2" y="3398.2" width="1409" height="1425.6" rx="33.2" ry="33.2"/>
  <g>
    <g>
      <path class="st14" d="M1926.2,4230.6h0c0,0,0,0,0,0,0,0,0,0,0,0Z"/>
      <path class="st3" d="M2477.1,3790.5c-1.7-43.3-49.7-90.8-87-109.4-19.8-10.6-41.9-12-63.3-2.7-31.4,13.7-67.3,43.2-59.4,81.3,8.5,43.3,83.9,117.7,128.5,121.5,43.8,4.2,80-50.9,81.3-89.8v-.9Z"/>
      <path class="st12" d="M1362,4161.3c3.9,7.7,1.6,2.7,9.5,14.8,10.2,15.5,22.7,32,31.7,36,56.8,20.4,71.3,82.2,130.1,97.8,64.5,21.1,64.3-50.9,129.9-61.7,66.4-9.5,72.9,24.7,137.1-27.3,32.3-22.7,70.5-16.7,106.9-11.3,19.5,1.1,38.1-6.7,54.1,8,10.3,10.4,11.2,24.5,9.9,37.8-1.5,14,2.2,32.5,5.1,47.3,3.9,21.5,1.8,43.8-6.9,63.5-10.1,23.3-28.3,38.5-33.7,61.4-5.4,21.8,3.4,44,4.2,66.3.9,22.5-5.3,45.2-18,63.8-11.7,17.7-29,28.4-39.1,43.2-17.6,27.1-.2,62,16.4,85.6,14.2,19.2,55,23.4,54.1,50-.8,21.9,4.8,26.8,4.8,26.8,8.9,13.1,28.1,31.1,32.8,34.3,24.7,16.5,117.5,15.4,150.7,16.1,37.2.8,192,1,200.4-3.5,31-16.5,67.5-46.4,91.4-70.4,18.9-19.5,24.8-25.1,45.2-43.1,57.4-50.8-13.4-98.5,61.8-112.5,15.4-3,36.2-5.4,47.7-10.6,12.4-6,12-16.4,17.1-35.7,27.7-118,97.9-406.2,116.9-491.5,1.3-14-5.8-19.3-13.9-33-7.8-12.2-16.2-32.6-17.1-51.5v-1c-2.4-32.5,4.8-65,7.4-97.3,3.9-38.6,3.4-77.6,7-116.5,2.4-23.5,1.9-50.9-22.8-61.9-11.1-5.6-25.3-8.9-37.8-12.3-52.6-14.1-102.3-45-135.1-90.1-11.8-15.7-20.9-34-27-51.8-6.3-17.8-14.3-34.7-32.3-42.1-12-5.1-26.8-6.3-40.2-6.7-65.8-3.6-132.9,5.6-198.6-2.9-20-3.1-44.7-16-57.8-26-10.3-7.7-18.5-8.9-29.9-5.4-83.7,22.5-385.8,102.2-528.7,140.3-16,4.3-25.2,5.5-30.2,15.1-6.6,14-8.8,37.3-12.8,54.3-20.3,90.3-67.9,176.2-129.6,245-16.6,17.5-38.2-27.9-55.7-24-2.5.6-6-55.7-6,10.5"/>
      <path class="st0" d="M1355.2,4119.6"/>
      <path class="st9" d="M1354.9,4054.8"/>
      <g>
        <path class="st5" d="M1817.2,4399c3.8,21.5,1.7,43.7-6.1,64-3.8,11.4-10.7,21.8-11.6,32.8,3.3,12.6,37.7-20.3,44.8-33.6,37.2-57.8-3.4-128.8-61.2-146.4-17.8-3.9,6.7,22.5,10,28.3,11.7,15.9,20.4,34.5,23.9,53.9l.2,1.1Z"/>
        <path class="st5" d="M1723.9,4568.9c17.6,15,31.6,34.1,40.8,55.3,3.6,5.5,14.1,45.8,20.8,31.9,16.5-55.3-24.7-124.7-85.1-136.7-13.6-4.8-65.3-2.1-58.2,8.9,8,6,18.6,7.4,28.9,11.2,18.9,5.9,36.8,15.6,52,28.6l.9.7Z"/>
        <path class="st5" d="M1652.1,4372.6c-17.4-10.6-37.8-16.2-58.2-15.4-23-.1-74.1,18.8-32.1,23.6,41.7,3,83.1,22.5,109.3,55.9,14.8,17.5,22.1,38.4,31.4,47,6.2,3.9,5.6-8.2,5.7-12.5-.7-38.6-21.8-77.8-55.2-98l-.9-.6Z"/>
        <path class="st5" d="M1561.3,4590.5c17.6,15,31.6,34.1,40.8,55.3,3.6,5.5,14.1,45.8,20.8,31.9,16.5-55.3-24.7-124.7-85.1-136.7-13.6-4.8-65.3-2.1-58.2,8.9,8,6,18.6,7.4,28.9,11.2,18.9,5.9,36.8,15.6,52,28.6l.9.7Z"/>
      </g>
      <path class="st7" d="M2530.2,3648.4c2.3,3.3,0,8.3-.8,12.9-3.3,12.2-4.9,26.1-2.8,38.8,2.1,14.6,7.6,25.4,6.6,29.6-2.3,7.1-17.1-2.4-32.3-3.4-4.2-.5-8.6-.7-12.9-.6-8.6.2-17.9,2.1-25.8,4.2-4.5.9-9.5,3.1-12.6.7-2.5-3.1-.4-8.1.4-12.6,1.9-8,3.6-17.2,3.6-25.8,0-4.3-.3-8.7-.9-12.9-1.4-15.2-11.2-29.5-4.2-32.1,3.4-1.3,23,6.4,35.7,6.4,11,.7,22.8-1.3,33-4.3,4.6-1,9.6-3.3,12.9-1.1l.2.2Z"/>
    </g>
    <g>
      <path class="st10" d="M1384.4,3973.9s0,0,0,0c0,0,.1-.1.2-.2l-.2.2Z"/>
      <path class="st10" d="M1388.9,3978.5c.1.1.2.2.3.4,0-.2,0-.4,0-.6,0,0-.1.1-.2.2Z"/>
      <path class="st10" d="M2194,4791.3"/>
      <path class="st10" d="M2173.8,4773.9"/>
      <path class="st10" d="M2155.9,4757.3"/>
      <path class="st1" d="M1361.2,3972.9c6.9,33.4,31.7,39.1,39.4,44.4,8,5.6,272.8,184.8,437.7,144.7,1.9-.5,3.7-.8,5.6-1.1,46.2-7.7,81.3-37.8,114.8-67.6,53.2-43.5,134.5,15,121.7,76.7-2.5,12-3.3,24.3-.9,36.4,14.1,72.7,32.8,293.7,41,358.6,3.4,27.1-1.9,51.9-8.9,78.2-5.1,19.4-4.1,39.8,2.9,58.6v.3c13.8,36.8,26.9,58.7,26.9,58.7,0,0,6,20.2,42.4,40,25.2,19.9,150.1,14.3,170.3,14.3,137.2,0,208.4.5,227-.6,83.4-4.9,129.9-60.3,148.4-95.2,16.8-31.8,15.7-55.8,17.1-78.2.2-3.6.4-309.4-2.3-631-.3-41.3,5.1-321.1-.7-432.3-2.3-43.5-22.9-140.1-144.7-171.6-26.4-6.8-451.2-.7-572.5.2-92.5.7-309.4-3.4-497.2-2-19.6.1-67.6,12-97,33.6-40.1,29.4-66.6,58.5-71.1,143.3-2.2,41.7,0,115.6,0,205"/>
      <path class="st10" d="M2212.2,4817.8"/>
      <path class="st10" d="M2190.4,4800.7"/>
      <path class="st10" d="M2194,4791.3c1.6,1.3,3.2,2.6,4.7,3.9"/>
    </g>
    <path class="st5" d="M2330,4333.8c-24.4-26.3-40.5-36-9.6-66.1,21.9-22,55.9-55.4,76.2-75.7,7.3-8,17.8-16,18.4-27-.2-7.5-7.9-15.7-20.3-28.4-17.1-17.3-41.2-41.6-59.5-60.1-12.2-14.2-31.5-26.1-30.7-45.5,1.4-10.4,13.8-20.1,26.2-33.9,42.4-43.2,40.9-116.5-6.8-155.2-34-29.5-86-32.4-123.6-8.1-52.4,37-45.5,63.3-98.2,7.5-18.1-18.3-41.8-42.2-58.6-59.1-12.6-12.5-20.7-20.3-28.2-20.5-7.7-.4-15.8,7-28.6,19.5-9.4,9.3-21.4,21.2-33.7,33.3-14.5,14.1-29.5,29.6-43.5,42.8-9.3,7.9-17.6,16.3-29.5,14.6-11-1.8-21.6-16-37-28.9-20.7-17.8-47.9-28.3-75.3-27-90.7,4.7-132.5,112.2-70.9,178.4,25.8,27.5,36.6,36.9,9.7,64-24,24.4-56.1,55.6-79.4,79-27.1,26.1-16.6,31.5,7.8,57,17.2,17.3,40.3,40.7,58.3,58.9,11.7,11.2,21.6,24.2,36.5,28.3,17.5,2.4,26-15.1,45.1-29.8,4.9-4,10-7.6,15.4-10.8,45.1-28.1,108.5-15.1,138.9,28.6,24.3,32.9,26.1,77.8,6.2,112.6-7.8,14.5-20.3,27.1-31.4,38.6-9,9.6-15.9,18.3-9.3,31.3,9.1,16.2,32.4,36.2,47.6,52.3,18.7,18.3,36.3,37.8,55.4,54.8,17.7,17.8,35.2-8.3,49.3-20.9,20.5-20.2,44.7-44.5,64.8-64.2,11.2-10.9,20.3-17.9,28.1-19,18.8-1.7,30.5,21.3,46.4,32.1,15.7,12.6,34.5,21.1,54.5,23.8,98.1,11.5,155.8-103.5,89.6-176.6l-.6-.7Z"/>
    <path class="st5" d="M2581.7,3586.9c2.2,4.6-3.2,12.3-5.5,18.2-5.2,11-9.2,23.6-8.5,36,.2,22.6,18.1,40.7,14.6,49.1-8.3,3.7-26.9-13.8-49.6-13.4-12.4-.5-25,3.9-35.9,9.2-5.8,2.3-13.3,7.8-17.8,5.4-2.5-4.5,2.9-12.1,5-17.9,5.1-10.9,9.2-23.6,8.4-35.9-.2-22.6-18.1-40.7-14.6-49.1,8.3-3.7,26.9,13.8,49.6,13.4,12.5.5,25.1-3.9,35.9-9.3,5.8-2.4,13.5-8,18.1-5.9l.2.2Z"/>
  </g>
  <text class="st1" transform="translate(2940 3803.4)"><tspan class="st4"><tspan x="0" y="0">PROGRAMA ESCUELA ACAR</tspan></tspan><tspan class="st11"><tspan x="0" y="306.2">Entrenamiento en habilidades para la </tspan></tspan><tspan class="st11"><tspan x="0" y="612.4">vida, liderazgo y ciudadania dirigido a </tspan></tspan><tspan class="st11"><tspan x="0" y="918.6">jovenes neurodivergentes</tspan></tspan></text>
  <path class="st8" d="M2137.1,4719.2"/>
  <path class="st13" d="M2171,4758.3"/>
  <path class="st6" d="M2147.9,4722.9"/>
</svg>